<svg width="31" height="23" viewBox="0 0 31 23" fill="none" xmlns="http://www.w3.org/2000/svg">
<path opacity="0.2" d="M22.0951 9.15275L19.8089 10.6913V12.9992C19.8089 15.4475 18.8455 17.7956 17.1305 19.5268C15.4156 21.258 13.0897 22.2306 10.6644 22.2306H0.757772L9.90233 10.6913V8.76811C9.90435 7.55338 10.3443 6.38093 11.1401 5.46974C11.9358 4.55855 13.0329 3.97093 14.2265 3.81664C15.42 3.66234 16.6284 3.95193 17.6259 4.6313C18.6234 5.31068 19.3418 6.33338 19.647 7.5084L22.0951 9.15275Z" fill="white"/>
<path d="M16.7607 7.99891C16.7607 8.22714 16.6937 8.45024 16.5681 8.64C16.4425 8.82977 16.264 8.97767 16.0551 9.06501C15.8462 9.15235 15.6164 9.1752 15.3947 9.13067C15.1729 9.08615 14.9693 8.97625 14.8094 8.81487C14.6495 8.65349 14.5407 8.44788 14.4966 8.22404C14.4525 8.0002 14.4751 7.76818 14.5616 7.55733C14.6481 7.34647 14.7946 7.16625 14.9826 7.03946C15.1706 6.91266 15.3916 6.84499 15.6177 6.84499C15.9208 6.84499 16.2116 6.96656 16.4259 7.18296C16.6403 7.39937 16.7607 7.69287 16.7607 7.99891ZM11.9122 13.9513C11.8368 13.885 11.7488 13.8348 11.6537 13.8037C11.5585 13.7725 11.4581 13.7611 11.3585 13.7701C11.2589 13.7791 11.1621 13.8083 11.0739 13.8559C10.9857 13.9036 10.908 13.9687 10.8454 14.0474L7.03513 18.6631C6.96948 18.7393 6.91975 18.8281 6.88892 18.9242C6.85808 19.0202 6.84677 19.1215 6.85566 19.2221C6.86456 19.3227 6.89347 19.4204 6.94068 19.5094C6.98789 19.5984 7.05241 19.6769 7.13038 19.7401C7.20585 19.8064 7.29379 19.8566 7.38893 19.8877C7.48408 19.9189 7.58447 19.9303 7.68409 19.9213C7.78371 19.9123 7.88051 19.8831 7.96869 19.8355C8.05687 19.7878 8.13461 19.7227 8.19725 19.644L12.0075 15.0283C12.0731 14.9521 12.1229 14.8633 12.1537 14.7673C12.1845 14.6712 12.1958 14.5699 12.1869 14.4693C12.178 14.3687 12.1491 14.271 12.1019 14.182C12.0547 14.093 11.9902 14.0145 11.9122 13.9513V13.9513ZM22.8571 9.15284C22.8583 9.28069 22.8275 9.40676 22.7675 9.51939C22.7076 9.63201 22.6204 9.72754 22.5142 9.79712L20.571 11.1049V12.9993C20.5659 15.6501 19.5206 18.1908 17.6638 20.0652C15.8071 21.9396 13.2902 22.9949 10.6644 23H0.75777C0.614565 22.9992 0.474485 22.9577 0.353587 22.8802C0.232689 22.8027 0.135868 22.6924 0.0742209 22.5619C0.0125742 22.4314 -0.0114023 22.286 0.00503983 22.1424C0.021482 21.9988 0.0776774 21.8628 0.167184 21.7499L9.14028 10.4222V8.7682C9.14062 7.39086 9.62905 6.05908 10.5173 5.01357C11.4055 3.96807 12.6349 3.27783 13.9833 3.06761C15.3317 2.85739 16.7101 3.14106 17.8694 3.86735C19.0287 4.59364 19.8923 5.71462 20.3043 7.02769L22.5142 8.50857C22.6204 8.57815 22.7076 8.67368 22.7675 8.7863C22.8275 8.89893 22.8583 9.025 22.8571 9.15284V9.15284ZM20.7234 9.15284L19.2279 8.14316C19.0719 8.04065 18.9597 7.8828 18.9135 7.70082C18.6581 6.70314 18.0508 5.83385 17.2055 5.2561C16.3603 4.67835 15.3352 4.43185 14.3228 4.56286C13.3103 4.69387 12.38 5.19338 11.7064 5.96765C11.0328 6.74193 10.6623 7.73774 10.6644 8.7682V10.6914C10.6655 10.8671 10.6048 11.0376 10.4929 11.1722L2.33902 21.4614H10.6644C12.8868 21.4589 15.0174 20.5665 16.5889 18.9801C18.1604 17.3937 19.0444 15.2428 19.0469 12.9993V10.6914C19.0457 10.5636 19.0765 10.4375 19.1365 10.3249C19.1964 10.2123 19.2836 10.1167 19.3898 10.0471L20.7234 9.15284Z" fill="#949494"/>
</svg>
