<svg width="25" height="24" viewBox="0 0 25 24" fill="none" xmlns="http://www.w3.org/2000/svg">
<path d="M24.3067 11.9966C24.3151 11.7114 24.3903 7.63507 21.9779 4.98152C21.8707 4.74432 21.3623 3.78834 19.7215 2.61996C18.9941 2.05573 18.2215 1.55231 17.4115 1.11478L17.4083 1.11318C17.3059 1.05838 15.3052 0 12.8768 0C12.6924 0 12.51 0.0107999 12.3296 0.0231996V0.0199996C10.478 -0.0203997 8.63881 0.455992 7.53042 0.956384C6.54723 1.40038 5.45564 2.14476 5.37684 2.20236C4.01525 2.96395 1.43327 6.0203 1.22887 7.63987C0.403675 8.69466 -0.28592 13.4326 1.23047 16.3185C2.29366 20.3293 6.29603 22.3364 6.61443 22.4904C6.80803 22.614 8.98921 23.9624 11.6688 23.9624C11.7812 23.9624 12.4608 24 12.7032 24C15.5996 24 19.8915 21.9584 20.7899 20.3593C23.2583 18.5537 24.5379 13.9006 24.3067 11.9966ZM6.63643 18.0217C5.48884 16.1653 4.83484 13.7398 4.69484 13.1826C5.05804 12.6382 6.84963 9.99663 7.87042 9.20185C8.44841 9.30824 10.862 9.75144 13.1384 10.1634C13.4244 10.9046 14.6792 14.175 15.0384 15.4373C14.6424 15.9069 13.0868 17.7181 11.5552 19.1365C9.9292 19.1441 7.16362 18.2061 6.63643 18.0217ZM21.0627 5.03192C21.0579 5.21191 21.0151 5.8519 20.7087 6.58669C20.1003 6.27589 18.5711 5.61031 16.4752 5.49791C16.158 5.02952 14.9644 3.39634 13.0792 2.26356C13.3372 1.75877 13.6964 1.14318 13.9064 0.955584C13.9744 0.936384 14.08 0.918785 14.2408 0.918785C15.2516 0.918785 16.9979 1.58077 17.1499 1.63957C17.3111 1.72477 20.4503 3.41514 21.0627 5.03192ZM4.24245 12.8046C2.87326 12.571 2.05926 12.1454 1.81606 12.0014C1.30687 10.1546 1.71686 8.15866 1.78006 7.87267C2.28246 6.97428 3.71285 4.68432 4.65644 4.24953C5.63443 4.04993 6.85403 4.29793 7.35082 4.41913C7.30402 5.06512 7.21402 6.86989 7.48122 8.76385C6.39883 9.63504 4.68564 12.1426 4.24245 12.8046M12.2072 0.61199C12.5144 0.634789 12.9652 0.701988 13.274 0.793587C12.966 1.20318 12.6504 1.81037 12.5012 2.11036C11.8732 2.21316 9.48801 2.66916 7.61682 3.88234C7.23962 3.78234 6.10043 3.51554 5.02164 3.60754C5.28884 3.09035 5.68803 2.70795 5.73083 2.66876C5.87923 2.56236 8.73601 0.563591 12.2072 0.60679V0.61199M19.8455 15.8489C19.3775 15.8297 17.5743 15.7269 15.5972 15.2625C15.2184 13.9418 13.9676 10.685 13.6816 9.94423C14.5915 8.64723 15.5153 7.35998 16.4528 6.0827C18.7279 6.2075 20.3255 7.03748 20.6347 7.21068C21.9527 9.33024 22.2419 11.495 22.2815 11.8566C21.5815 14.035 20.1971 15.5017 19.8455 15.8489M0.99527 10.6074C1.02887 11.1138 1.11007 11.647 1.25687 12.1742C1.12489 12.5158 1.03334 12.8717 0.984071 13.2346C0.900533 12.3607 0.904284 11.4806 0.99527 10.6074M4.85284 19.9509C5.45604 19.3697 6.19963 18.8041 6.48803 18.5905C7.14002 18.8201 9.8176 19.7253 11.5244 19.7253C11.8152 20.1153 12.766 21.3364 13.9316 22.27C13.206 22.98 12.158 23.3152 11.9728 23.3708C8.72201 23.458 5.55604 21.6308 4.85284 19.9509M13.438 23.366C13.8068 23.1512 14.1912 22.8684 14.5092 22.5104C15.028 22.4388 17.2543 22.0556 19.2663 20.5777C19.3991 20.5921 19.6179 20.6097 19.8623 20.6029C18.6551 21.7856 15.7096 23.1068 13.438 23.366ZM19.6075 20.0157C20.3303 18.1325 20.2995 16.7125 20.2639 16.2589C20.6607 15.8701 22.0223 14.4194 22.7779 12.2138C23.1851 12.2818 23.4499 12.3854 23.5755 12.4434C23.6191 12.6034 23.6919 12.973 23.6507 13.5334C23.3427 15.5505 22.2795 18.5733 20.4171 19.9097C20.2299 20.0053 19.9003 20.0261 19.6075 20.0157" fill="#FAFAFA"/>
</svg>
