<svg width="25" height="24" viewBox="0 0 25 24" fill="none" xmlns="http://www.w3.org/2000/svg">
<path d="M21.1653 4.555C21.2658 4.4044 21.3235 4.22935 21.3323 4.04852C21.3411 3.86769 21.3006 3.68786 21.2152 3.52823C21.1298 3.36861 21.0027 3.23516 20.8474 3.14213C20.692 3.0491 20.5144 2.99997 20.3333 3H4.33335C4.15246 3.00009 3.97499 3.04925 3.81983 3.14223C3.66467 3.23521 3.53764 3.36853 3.45226 3.528C3.36689 3.68747 3.32636 3.86711 3.335 4.04778C3.34365 4.22846 3.40114 4.40341 3.50135 4.554L11.3333 16.303V20H8.33335V22H16.3333V20H13.3333V16.303L21.1653 4.555V4.555ZM12.3333 14.197L8.86835 9H15.7983L12.3333 14.197ZM18.4653 5L17.1323 7H7.53435L6.20135 5H18.4653V5Z" fill="#FAFAFA"/>
</svg>
