<svg width="45" height="46" viewBox="0 0 45 46" fill="none" xmlns="http://www.w3.org/2000/svg">
<path d="M22.5 14.4789C23.051 14.4789 23.5699 14.2194 23.9003 13.7784L23.9009 13.7777L23.9055 13.7716C23.9118 13.7634 23.9228 13.7491 23.9383 13.7292C23.9694 13.6893 24.0188 13.6268 24.0854 13.545C24.2187 13.3813 24.4206 13.1412 24.6833 12.85C25.2109 12.2655 25.9733 11.4875 26.9101 10.7135C28.833 9.12474 31.2513 7.75 33.75 7.75C39.0177 7.75 43.25 11.9587 43.25 17.1027C43.25 19.3233 42.8143 23.1853 40.0783 27.917C37.3367 32.6582 32.2307 38.3673 22.7424 44.1831C22.6696 44.2267 22.5858 44.25 22.5 44.25C22.4142 44.25 22.3304 44.2267 22.2576 44.1831C12.7693 38.3673 7.66325 32.6582 4.92174 27.917C2.18568 23.1853 1.75 19.3233 1.75 17.1027C1.75 11.9587 5.98229 7.75 11.25 7.75C13.7487 7.75 16.167 9.12474 18.0899 10.7135C19.0267 11.4875 19.7891 12.2655 20.3167 12.85C20.5794 13.1412 20.7813 13.3813 20.9146 13.545C20.9812 13.6268 21.0306 13.6893 21.0617 13.7292C21.0772 13.7491 21.0882 13.7634 21.0945 13.7716L21.0991 13.7777L21.0997 13.7784L21.0997 13.7785C21.1 13.7789 21.1002 13.7792 21.1005 13.7796C21.431 14.2198 21.9494 14.4789 22.5 14.4789Z" stroke="#949494" stroke-width="3.5" stroke-linecap="round" stroke-linejoin="round"/>
</svg>
