<svg width="46" height="46" viewBox="0 0 46 46" fill="none" xmlns="http://www.w3.org/2000/svg">
<path d="M22.5806 13.7289C22.8949 13.7289 23.1909 13.5811 23.3798 13.33C23.3799 13.3299 23.38 13.3297 23.3801 13.3296L23.381 13.3285L23.3891 13.3178C23.3969 13.3077 23.4094 13.2914 23.4266 13.2695C23.461 13.2255 23.5138 13.1589 23.5843 13.0727C23.7252 12.9003 23.936 12.6504 24.2092 12.3488C24.7566 11.7444 25.5483 10.9393 26.5235 10.1365C28.5018 8.5077 31.0996 7 33.871 7C39.5691 7 44.1613 11.5385 44.1613 17.1027C44.1613 19.4318 43.6999 23.4273 40.8774 28.2911C38.0516 33.1606 32.8276 38.9547 23.2176 44.8234C23.026 44.9387 22.8057 45 22.5806 45C22.3555 45 22.1352 44.9387 21.9436 44.8233C12.3337 38.9546 7.10969 33.1606 4.28391 28.2911C1.46139 23.4273 1 19.4318 1 17.1027C1 11.5385 5.59214 7 11.2903 7C14.0617 7 16.6595 8.5077 18.6378 10.1365C19.613 10.9393 20.4047 11.7444 20.9521 12.3488C21.2252 12.6504 21.4361 12.9003 21.577 13.0727C21.6475 13.1589 21.7003 13.2255 21.7347 13.2695C21.7519 13.2914 21.7644 13.3077 21.7722 13.3178L21.7803 13.3285L21.7812 13.3296C21.7813 13.3297 21.7814 13.3299 21.7815 13.33C21.7815 13.33 21.7815 13.3301 21.7815 13.3301C21.9705 13.5812 22.2664 13.7289 22.5806 13.7289Z" fill="#DFA533" stroke="#DFA533" stroke-width="2" stroke-linecap="round" stroke-linejoin="round"/>
</svg>
