<svg width="61" height="46" viewBox="0 0 61 46" fill="none" xmlns="http://www.w3.org/2000/svg">
<path d="M43.4499 17.0171L39.1849 14.0554C38.3899 11.4292 36.7232 9.18727 34.4859 7.7347C32.2486 6.28212 29.5885 5.71478 26.9862 6.13522C24.384 6.55566 22.0113 7.93615 20.2972 10.0271C18.583 12.1182 17.6404 14.7817 17.6397 17.5364V20.8443L0.322647 43.4998C0.149909 43.7255 0.0414579 43.9976 0.00972631 44.2848C-0.0220052 44.572 0.0242668 44.8628 0.143238 45.1238C0.262209 45.3847 0.449064 45.6054 0.682383 45.7603C0.915702 45.9153 1.18604 45.9984 1.46241 46H20.581C25.6486 45.9898 30.5059 43.8793 34.0892 40.1305C37.6725 36.3817 39.6899 31.3001 39.6997 25.9985V22.2098L43.4499 19.5942C43.6547 19.4544 43.823 19.2634 43.9394 19.0384C44.0559 18.8134 44.1169 18.5616 44.1169 18.3057C44.1169 18.0498 44.0559 17.798 43.9394 17.573C43.823 17.348 43.6547 17.1569 43.4499 17.0171ZM20.2318 30.0565L12.8784 39.288C12.6171 39.5499 12.2725 39.7017 11.9108 39.7145C11.5491 39.7273 11.1956 39.6001 10.9179 39.3572C10.6402 39.1143 10.4579 38.7729 10.4058 38.3982C10.3538 38.0235 10.4356 37.6418 10.6357 37.3263L17.989 28.0949C18.1033 27.9145 18.2527 27.7615 18.4274 27.6457C18.6022 27.5299 18.7983 27.4539 19.0029 27.4228C19.2076 27.3917 19.4163 27.4061 19.6153 27.465C19.8143 27.524 19.9992 27.6262 20.1578 27.765C20.3165 27.9038 20.4454 28.076 20.5361 28.2705C20.6269 28.4649 20.6774 28.6772 20.6843 28.8935C20.6913 29.1097 20.6546 29.3251 20.5766 29.5255C20.4986 29.7259 20.3811 29.9069 20.2318 30.0565ZM30.1404 18.3057C29.704 18.3057 29.2775 18.1703 28.9148 17.9167C28.552 17.6632 28.2692 17.3027 28.1023 16.881C27.9353 16.4593 27.8916 15.9953 27.9767 15.5476C28.0619 15.0999 28.272 14.6887 28.5805 14.3659C28.889 14.0432 29.2821 13.8234 29.71 13.7343C30.1379 13.6453 30.5815 13.691 30.9845 13.8656C31.3876 14.0403 31.7322 14.3361 31.9746 14.7157C32.217 15.0952 32.3463 15.5414 32.3463 15.9978C32.3463 16.6099 32.1139 17.1969 31.7002 17.6297C31.2865 18.0625 30.7254 18.3057 30.1404 18.3057Z" fill="#DFA533"/>
<path d="M50.3907 0.00322148L46.2256 0.54446C46.0086 0.571522 45.8458 0.760955 45.8458 0.977451V6.13275C45.4591 5.99744 45.0317 5.94331 44.584 5.99067C43.1934 6.13951 42.0945 7.28964 42.0063 8.68333C41.9801 9.07838 42.0356 9.47458 42.1694 9.84733C42.3032 10.2201 42.5124 10.5614 42.7841 10.8501C43.0557 11.1388 43.384 11.3687 43.7485 11.5255C44.113 11.6823 44.5059 11.7627 44.9029 11.7616C46.5038 11.7616 47.8062 10.4694 47.8062 8.866C47.8062 8.80511 47.8062 8.74422 47.7994 8.68333V3.38596C47.7994 3.19653 47.9418 3.03416 48.1318 3.00709L50.4789 2.70265C50.5658 2.6911 50.6454 2.64829 50.7029 2.58225C50.7604 2.51621 50.7917 2.43151 50.7909 2.34408V0.361792C50.7924 0.310758 50.7827 0.260021 50.7625 0.213102C50.7423 0.166183 50.7121 0.124208 50.674 0.09009C50.6359 0.0559721 50.5909 0.0305295 50.5419 0.0155286C50.493 0.000527793 50.4414 -0.00367177 50.3907 0.00322148V0.00322148ZM60.593 1.60664L56.4279 2.14788C56.2109 2.17494 56.0481 2.35761 56.0481 2.5741V9.34635C55.6614 9.21104 55.2341 9.15692 54.7864 9.20427C53.3957 9.35312 52.2968 10.5032 52.2086 11.8969C52.1824 12.292 52.2379 12.6882 52.3717 13.0609C52.5055 13.4337 52.7147 13.775 52.9864 14.0637C53.258 14.3524 53.5863 14.5823 53.9508 14.7391C54.3153 14.8959 54.7082 14.9763 55.1052 14.9752C56.7061 14.9752 58.0085 13.683 58.0085 12.0796C58.0085 12.0187 58.0085 11.9578 58.0017 11.8969V4.98938C58.0017 4.79995 58.1442 4.63758 58.3341 4.61051L60.6812 4.30607C60.8643 4.279 61 4.13016 61 3.9475V1.95845C61 1.74195 60.8101 1.57958 60.593 1.60664V1.60664Z" fill="#DFA533"/>
<path d="M49.5292 5.17886L53.6942 4.63762C53.9113 4.6038 54.1012 4.77293 54.1012 4.98943V6.97171C54.1012 7.15438 53.9656 7.30999 53.7892 7.33028L51.4421 7.63473C51.3504 7.6477 51.2664 7.69307 51.2054 7.76261C51.1444 7.83214 51.1104 7.92121 51.1097 8.0136V14.9279C51.1165 14.9888 51.1165 15.0497 51.1165 15.1106C51.1165 16.714 49.8141 18.0062 48.2132 18.0062C46.5445 18.0062 45.2081 16.6125 45.3167 14.9279C45.3981 13.5342 46.497 12.3909 47.8876 12.242C48.3353 12.1947 48.7626 12.2488 49.1493 12.3841V5.61185C49.1493 5.38859 49.3121 5.20592 49.5292 5.17886V5.17886Z" fill="#DFA533"/>
</svg>
